<?xml version="1.0" standalone="no"?>
<!DOCTYPE svg PUBLIC "-//W3C//DTD SVG 20010904//EN"
 "http://www.w3.org/TR/2001/REC-SVG-20010904/DTD/svg10.dtd">
<svg version="1.0" xmlns="http://www.w3.org/2000/svg"
 width="755.000000pt" height="1280.000000pt" viewBox="0 0 755.000000 1280.000000"
 preserveAspectRatio="xMidYMid meet">
<metadata>
Created by potrace 1.15, written by Peter Selinger 2001-2017
</metadata>
<g transform="translate(0.000000,1280.000000) scale(0.100000,-0.100000)"
fill="#4caf50" stroke="none">
<path d="M482 12793 c-12 -2 -44 -25 -72 -51 -47 -44 -59 -69 -231 -457 l-181
-410 5 -155 c5 -179 23 -251 89 -363 105 -179 295 -292 513 -304 166 -9 298
40 415 157 83 83 118 151 250 485 57 143 106 263 110 268 3 4 87 -26 186 -67
151 -62 1046 -430 1864 -766 118 -49 456 -187 750 -308 294 -121 866 -356
1270 -522 404 -166 813 -334 908 -373 94 -39 172 -73 171 -76 0 -3 -811 -566
-1802 -1251 -1931 -1335 -1912 -1321 -1996 -1462 -85 -145 -116 -280 -108
-463 10 -239 3 -218 461 -1287 l415 -967 -621 -1863 -621 -1863 -1 -100 c0
-168 50 -291 169 -410 115 -115 246 -173 410 -182 291 -15 459 103 550 387 20
61 1199 3436 1300 3720 l12 35 46 -140 47 -140 0 -1646 0 -1646 25 -97 c57
-228 188 -376 390 -443 71 -23 96 -26 220 -27 105 0 156 4 204 18 213 59 356
212 423 451 l23 80 3 1605 c2 1106 0 1634 -8 1699 -6 52 -21 124 -35 160 -13
36 -319 782 -679 1656 -361 875 -656 1593 -656 1596 0 6 223 164 1720 1218
787 554 752 528 877 643 203 186 246 263 247 438 1 120 -11 175 -63 275 -42
82 -158 203 -241 252 -30 18 -302 132 -605 253 -302 122 -975 393 -1495 602
-520 210 -1188 479 -1485 598 -297 120 -844 340 -1215 490 -1596 643 -1890
760 -1912 759 -13 -1 -33 -4 -46 -6z"/>
<path d="M1800 10124 c-77 -10 -237 -47 -304 -71 -392 -141 -728 -477 -865
-866 -131 -371 -96 -745 103 -1100 148 -265 415 -501 697 -616 165 -67 282
-92 459 -98 182 -6 287 9 449 63 491 164 870 598 955 1093 20 120 21 322 1
437 -48 274 -187 536 -395 744 -204 204 -430 330 -700 391 -83 19 -322 33
-400 23z"/>
</g>
</svg>
